<svg width="100" height="20" viewBox="0 0 100 20" fill="none" xmlns="http://www.w3.org/2000/svg">
<g clip-path="url(#clip0_857_20084)">
<path d="M0 13.6059H1.54405V14.4415C1.54405 15.6223 2.17984 16.1854 4.19619 16.1854H9.22797C11.5713 16.1854 12.2616 15.695 12.2616 13.9692C12.2616 12.2435 11.6621 12.0801 9.64578 12.0801H6.57584C1.63488 12.0801 0.0181653 11.7894 0.0181653 8.61048C0.0181653 5.43155 1.61671 5.26807 4.95913 5.26807H8.44687C12.4614 5.26807 13.4787 6.28532 13.4787 8.42883V8.84663H11.9528C11.9164 6.93927 11.7166 6.59413 7.46594 6.59413H5.74024C2.6158 6.59413 1.50772 6.75762 1.50772 8.71947C1.50772 10.6813 1.96185 10.6268 4.48683 10.6268H9.28247C12.4432 10.6268 13.7693 11.5351 13.7693 13.5696V14.3507C13.7693 17.2935 11.3533 17.5115 8.95549 17.5115H4.46867C2.10718 17.5115 0 17.0937 0 14.4779V13.6059Z" fill="#1D1D1B"/>
<path d="M15.2598 5.41309H16.6767V6.9753H15.2598V5.41309ZM15.2598 8.95532H16.6767V17.384H15.2598V8.93716V8.95532Z" fill="#1D1D1B"/>
<path d="M26.2679 9.35502C25.7048 8.97355 24.8874 8.81006 23.6884 8.81006H22.3442C21.3633 8.81006 20.2915 9.08254 19.7647 10.1725H19.7284V8.95538H18.4023V17.3841H19.8192V12.0253C19.8192 10.9354 20.5458 9.97264 22.0536 9.97264H22.9255C24.1244 9.97264 24.851 10.0453 25.287 10.3541C25.5958 10.009 25.9773 9.6275 26.2498 9.37318" fill="#1D1D1B"/>
<path d="M33.752 9.77305C33.752 6.26715 35.7138 5.44971 39.0199 5.44971H43.3432C48.5748 5.44971 49.247 6.57596 49.2106 9.9547H45.5412V9.62773C45.5412 8.77396 44.9054 8.51964 43.8155 8.51964H39.8192C37.8936 8.51964 37.5303 9.42791 37.5303 10.9175V12.2072C37.5303 13.9511 37.8936 14.605 39.6375 14.605H43.5612C45.2143 14.605 45.7047 14.4415 45.7047 12.952H49.3741V14.0782C49.3741 16.0946 48.6475 17.675 44.9599 17.675H39.0381C35.732 17.675 33.7701 16.8394 33.7701 13.3516V9.77305H33.752Z" fill="#1D1D1B"/>
<path d="M50.0455 9.10089H53.0246V10.6994H53.061C53.4243 9.3552 54.714 8.95557 56.1491 8.95557C58.456 8.95557 59.3643 9.95466 59.3643 12.2798C59.3643 14.605 59.3643 12.7339 59.328 13.0246H56.585C56.585 11.9528 56.3307 11.4442 55.0591 11.4442C53.7876 11.4442 53.2063 11.862 53.2063 12.8611V17.5296H50.0273V9.10089H50.0455Z" fill="#1D1D1B"/>
<path d="M60.0176 12.861C60.0176 9.66391 61.598 8.97363 63.9231 8.97363H66.1393C69.518 8.97363 70.8986 9.68208 70.8986 12.6067V14.0236H63.1965V14.5322C63.1965 15.4223 63.8323 15.6766 65.1402 15.6766H66.1211C67.8468 15.6766 67.9195 15.2225 67.9195 14.7139H70.8986V15.0772C70.8986 17.1844 69.0094 17.6566 66.7206 17.6566H64.3409C62.2337 17.6566 60.0176 17.257 60.0176 13.6603V12.8428V12.861ZM67.8287 12.1526C67.8287 11.1353 67.3745 10.9537 65.5217 10.9537C63.6688 10.9537 63.2147 11.1353 63.2147 12.1526H67.8468H67.8287Z" fill="#1D1D1B"/>
<path d="M71.7891 12.5703C71.7891 10.4268 72.2795 8.99174 76.2941 8.99174H77.2387C78.5466 8.99174 79.8908 9.35504 80.0906 10.6811H80.1269V5.57666H83.3059V17.5294H80.3268V15.9672H80.2904C79.9453 17.0026 79.146 17.6566 77.2387 17.6566H76.3122C72.2977 17.6566 71.8072 16.2215 71.8072 14.078V12.5521L71.7891 12.5703ZM74.859 13.8237C74.859 14.7683 75.0043 15.2951 76.5302 15.2951H78.4012C79.6546 15.2951 80.3268 15.0226 80.3268 13.7329V12.9154C80.3268 11.6439 79.6728 11.3532 78.4012 11.3532H76.5302C75.0043 11.3532 74.859 11.88 74.859 12.8246V13.8237Z" fill="#1D1D1B"/>
<path d="M88.175 8.04724H84.9961V5.55859H88.175V8.04724ZM88.175 17.5295H84.9961V9.10083H88.175V17.5295Z" fill="#1D1D1B"/>
<path d="M90.6448 11.3895H89.0645V9.10062H90.6448V7.12061H93.8238V9.10062H98.7466V11.3895H93.8238V14.6229C93.8238 15.2587 94.2779 15.3858 95.0408 15.3858C95.8038 15.3858 96.3487 15.1497 96.3487 14.3686V13.8054H99.128V14.8227C99.128 16.4212 98.0744 17.6565 95.5495 17.6565H94.2961C92.3524 17.6565 90.663 17.0389 90.663 14.7137V11.3713L90.6448 11.3895Z" fill="#1D1D1B"/>
<path d="M32.426 2.88818C34.1517 3.45131 35.2235 5.19518 33.407 8.46493C31.5904 11.7347 31.5723 6.39409 31.5723 6.39409C32.1899 5.79463 33.0073 4.43223 32.8257 4.12342C32.3715 3.41498 32.0264 2.88818 32.426 2.90635" fill="#1D1D1B"/>
<path d="M31.7157 6.64846C31.8611 7.32058 33.1326 9.20977 34.3134 10.8265C34.7493 11.4441 35.4033 12.7338 35.2035 14.0962C34.9128 16.1489 33.1326 18.2743 29.2452 17.7838L27.7557 17.6021L27.3379 17.4023L29.7902 7.17526L31.3343 6.28516L31.7157 6.64846Z" fill="white"/>
<path d="M30.3363 20C30.2637 20 30.191 20 30.1184 20C29.9004 19.9092 29.7369 19.7639 29.5371 19.6367C29.3554 19.5096 29.1374 19.4188 28.8831 19.4369C28.7196 19.4369 28.5925 19.4914 28.5016 19.6004C28.4472 19.6549 28.3927 19.7094 28.3382 19.7639C28.2473 19.8366 28.1383 19.8547 28.0294 19.8002C27.884 19.7276 27.8114 19.6004 27.7932 19.4733C27.7569 19.1644 27.7205 18.8556 27.7024 18.5468C27.666 18.2017 27.5752 17.8747 27.3936 17.5659C27.3936 17.5477 27.3754 17.5296 27.3572 17.5114C27.3572 17.4932 27.3209 17.4569 27.3391 17.4387C27.3572 17.4206 27.4117 17.4387 27.4299 17.4387C27.8477 17.5659 28.2655 17.6567 28.6833 17.7294C28.8468 17.7657 29.0103 17.802 29.1919 17.8202C29.2828 17.8202 29.3554 17.8929 29.4281 17.9292C29.7914 18.0927 30.1547 18.2198 30.5362 18.347C30.9903 18.5287 31.4444 18.7285 31.8441 18.9646C31.9349 19.0191 32.0076 19.0736 32.0802 19.1644C32.1529 19.2553 32.171 19.3643 32.0802 19.4369C32.0076 19.5096 31.8622 19.5277 31.7351 19.4733C31.5716 19.4006 31.4444 19.3098 31.2628 19.2916C31.0811 19.2734 30.8995 19.2734 30.736 19.3098C30.6088 19.3461 30.5362 19.4188 30.5362 19.5459C30.5362 19.5822 30.5362 19.6186 30.5362 19.6731C30.5362 19.8184 30.518 19.9637 30.3363 20.0364" fill="#F5A800"/>
<path d="M31.4444 5.52241C31.3899 5.55874 31.3899 5.61324 31.3717 5.66773C31.3535 5.7404 31.2809 5.79489 31.19 5.79489C31.0447 5.79489 30.9176 5.75856 30.7904 5.7404C30.5724 5.70406 30.3544 5.66773 30.1365 5.66773C29.8821 5.66773 29.6278 5.64957 29.3735 5.6314C29.1192 5.6314 28.8831 5.55874 28.6651 5.46792C28.4834 5.39525 28.3744 5.2681 28.3926 5.08644C28.3926 4.88663 28.6106 4.7958 28.8104 4.88663C28.9012 4.92296 28.9739 4.99562 29.0647 5.03195C29.21 5.10461 29.3917 5.08644 29.5552 5.06828C29.8821 5.03195 30.1546 4.88663 30.3908 4.68681C30.5724 4.52332 30.7541 4.35983 30.8812 4.16001C30.9357 4.08735 30.9539 4.01469 31.0266 3.94203C31.0992 3.86937 31.1356 3.86937 31.2445 3.9057C31.299 3.92387 31.3535 3.9602 31.4262 3.94203C31.5352 3.97836 31.6442 3.9602 31.7713 3.9602C32.0801 3.9602 32.3708 3.9602 32.6796 3.9602C32.9521 3.97836 33.2427 4.01469 33.4789 4.16001C33.497 4.16001 33.5334 4.19634 33.5515 4.21451C33.606 4.28717 33.5879 4.34167 33.4789 4.35983C33.4244 4.35983 33.3517 4.378 33.2972 4.378C33.0247 4.378 32.8068 4.46882 32.5888 4.55965C32.3163 4.68681 32.062 4.81396 31.844 4.99562C31.6987 5.12278 31.5897 5.24993 31.517 5.41342C31.517 5.44975 31.4989 5.46792 31.4989 5.50425" fill="#F5A800"/>
<path d="M35.1504 16.7119C35.4229 16.7119 35.7136 16.7119 35.9679 16.8027C36.0405 16.8209 36.095 16.8572 36.1677 16.8936C36.2404 16.9481 36.204 17.0389 36.1132 17.0752C36.0587 17.0934 35.986 17.0934 35.9315 17.1116C35.877 17.1297 35.8044 17.1479 35.8044 17.2205C35.8044 17.2932 35.8589 17.3295 35.9497 17.3659C36.095 17.4022 36.2404 17.4385 36.3493 17.5112C36.4038 17.5294 36.4402 17.5657 36.4765 17.602C36.531 17.6383 36.5492 17.6928 36.5128 17.7473C36.4765 17.8018 36.422 17.8382 36.3312 17.8563C36.2585 17.8563 36.1677 17.8563 36.095 17.8563C35.9134 17.8382 35.7317 17.8382 35.5501 17.8563C35.5137 17.8563 35.4774 17.8563 35.4411 17.8563C35.2776 17.9108 35.2594 18.0017 35.3866 18.1106C35.4229 18.1288 35.4411 18.1651 35.4592 18.1833C35.5501 18.3105 35.4956 18.4013 35.3321 18.4195C35.2413 18.4195 35.1504 18.4013 35.0596 18.365C34.5146 18.147 33.9515 18.038 33.3702 17.9653C32.9343 17.9108 32.4983 17.8563 32.0623 17.82C31.9897 17.82 31.917 17.82 31.8625 17.82C31.8262 17.82 31.6627 17.82 31.6445 17.7837C31.6445 17.7473 31.8262 17.7473 31.8444 17.7473C32.0442 17.711 32.2258 17.6565 32.4075 17.5838C32.8071 17.4204 33.1704 17.2205 33.4974 16.9662C33.5337 16.9299 33.5882 16.9299 33.6427 16.9117C34.0424 16.8572 34.442 16.8027 34.8416 16.7482C34.9325 16.7482 35.0414 16.7482 35.1323 16.7482" fill="#F5A800"/>
<path d="M29.2818 5.99444C29.2274 5.95811 29.1547 5.99444 29.082 5.93994C29.6088 5.93994 30.0993 6.0671 30.5716 6.23059C30.5353 6.26692 30.4989 6.23059 30.4808 6.23059C30.4626 6.23059 30.4263 6.23059 30.4263 6.26692C30.4263 6.28508 30.4444 6.28508 30.4626 6.30325C30.4989 6.30325 30.5716 6.30325 30.5716 6.33958C30.5716 6.39407 30.4989 6.33958 30.4808 6.37591C30.3899 6.4849 30.2083 6.4849 30.0811 6.55756C30.0448 6.57573 30.0448 6.59389 30.0811 6.61206C30.1175 6.61206 30.1719 6.64839 30.2083 6.61206C30.2628 6.59389 30.3173 6.61206 30.3718 6.61206C30.4808 6.63022 30.4808 6.66655 30.4808 6.75738C30.4808 6.86637 30.4263 6.97536 30.4081 7.08436C30.4081 7.13885 30.3536 7.21151 30.2809 7.26601C30.2264 7.30234 30.1901 7.375 30.1356 7.4295C30.063 7.50216 30.0448 7.61115 29.954 7.66565C29.9176 7.68381 29.8813 7.70198 29.8268 7.70198C29.7905 7.70198 29.7541 7.66565 29.7541 7.62931C29.7541 7.59298 29.7178 7.57482 29.6815 7.55665C29.5725 7.4295 29.4453 7.3205 29.3545 7.19335C29.2818 7.10252 29.2274 7.02986 29.1547 6.93903C29.1365 6.92087 29.1184 6.88454 29.1365 6.84821C29.191 6.73921 29.1729 6.61206 29.1729 6.50307C29.1729 6.35774 29.1729 6.23059 29.1729 6.08526C29.191 6.04893 29.1184 6.0126 29.1729 5.97627C29.2092 5.95811 29.2637 5.97627 29.3 5.97627" fill="#1D1D1B"/>
<path d="M28.8652 4.19641C28.8652 3.94209 29.0106 3.74227 29.283 3.59695C29.392 3.54246 29.5374 3.52429 29.6645 3.54246C29.7553 3.54246 29.828 3.63328 29.9007 3.68778C30.1913 4.01475 30.0641 4.41439 29.6827 4.57788C29.3557 4.7232 29.0287 4.65054 28.9016 4.32356C28.8834 4.26907 28.9016 4.23274 28.9016 4.17824" fill="white"/>
<path d="M30.9896 6.63012C31.0622 6.57562 31.1531 6.52113 31.262 6.52113C31.371 6.52113 31.2984 6.52113 31.3165 6.52113C31.3165 6.52113 31.3347 6.50296 31.3529 6.4848C31.3529 6.44847 31.3529 6.41213 31.3529 6.3758C31.3529 6.35764 31.3347 6.33947 31.3529 6.30314C31.3529 6.24865 31.3529 6.19415 31.3529 6.13965C31.3529 6.08516 31.3347 6.06699 31.262 6.04883C31.0986 6.04883 30.9714 6.08516 30.8261 6.13965C30.7897 6.13965 30.7897 6.17599 30.8261 6.19415C30.8987 6.26681 30.8987 6.35764 30.9351 6.44846C30.9714 6.50296 30.9896 6.57562 31.0259 6.61195" fill="#1D1D1B"/>
<path d="M29.8641 3.85081C29.8641 3.99613 29.7188 4.14146 29.5553 4.15962C29.4463 4.15962 29.3373 4.15962 29.2646 4.0688C29.1738 3.97797 29.192 3.86898 29.2646 3.77815C29.3191 3.68732 29.4099 3.63283 29.5189 3.61466C29.7188 3.56017 29.8822 3.66916 29.8822 3.85081M29.5734 3.81448C29.5734 3.74182 29.5371 3.70549 29.4463 3.70549C29.3554 3.70549 29.2828 3.75999 29.2828 3.83265C29.2828 3.88714 29.3373 3.94164 29.4099 3.94164C29.4826 3.94164 29.5553 3.86898 29.5553 3.81448" fill="#000100"/>
<path d="M29.5362 3.81456C29.5362 3.86905 29.4635 3.94172 29.3908 3.94172C29.3182 3.94172 29.2637 3.90538 29.2637 3.83272C29.2637 3.76006 29.3363 3.70557 29.4272 3.70557C29.4998 3.70557 29.5361 3.7419 29.5543 3.81456" fill="#F2F2F3"/>
<path d="M28.8639 5.2318C29.0818 5.35895 29.2635 5.41345 29.5905 5.41345C29.9174 5.41345 30.2263 5.30446 30.4987 5.1773C30.6441 5.10464 30.8076 5.01381 30.9347 4.95932C31.08 4.88666 31.2435 4.814 31.3888 4.74133C31.6432 4.61418 31.8248 4.52335 32.1155 4.46886C32.4606 4.39619 32.8239 4.37803 33.1509 4.39619C33.2599 4.39619 32.9874 4.35986 32.8784 4.35986C32.5514 4.35986 32.4424 4.35986 32.1336 4.43252C31.8793 4.46886 31.734 4.50519 31.4978 4.59601C31.3525 4.65051 31.2254 4.705 31.08 4.77767C30.9347 4.85033 30.7894 4.90482 30.6441 4.97748C30.3897 5.10464 30.1354 5.26813 29.8266 5.30446C29.4815 5.35896 29.1182 5.30446 28.8639 5.10464C28.773 5.03198 28.664 5.14097 28.7549 5.21363L28.8457 5.26813L28.8639 5.2318Z" fill="#000100"/>
<path d="M28.8653 4.95898C28.6654 4.95898 28.4475 5.03165 28.5564 5.19513C28.5564 5.19513 28.6473 4.97715 28.8653 4.95898Z" fill="#000100"/>
<path d="M32.0609 2.99718C31.9701 2.96085 31.8974 2.94268 31.8066 2.92452C31.4614 2.87002 31.1345 2.87002 30.7893 2.87002C30.7167 2.87002 30.6803 2.87002 30.6622 2.79736C30.6258 2.6702 30.5895 2.56121 30.5532 2.43405C30.4805 2.21607 30.426 1.99808 30.3715 1.7801C30.2807 1.32597 30.2262 0.85367 30.1899 0.381372C30.1899 0.290546 30.1354 0.217885 30.0264 0.181554C29.8992 0.127058 29.7539 0.0907276 29.6086 0.0725623C29.4996 0.054397 29.4451 0.0362317 29.2816 0.0180664C29.1181 0.0180664 28.882 0.0180664 28.882 0.0180664C28.7911 0.0180664 28.5005 0.054397 28.3915 0.0725623C27.8829 0.145224 27.6104 0.199719 27.1563 0.417703C26.9201 0.526695 26.7021 0.672017 26.5205 0.85367C26.4115 0.962662 26.3933 1.07165 26.4841 1.21698C26.902 1.88909 27.1926 2.59754 27.3924 3.32415C27.3924 3.37865 27.3924 3.39681 27.3379 3.41498C27.0473 3.52397 26.7566 3.63296 26.4841 3.77828C26.3933 3.83278 26.3207 3.86911 26.248 3.94177C26.1753 4.0326 26.1935 4.10526 26.3025 4.14159C26.3752 4.17792 26.466 4.17792 26.5386 4.19609C26.8111 4.23242 27.0836 4.21425 27.3379 4.19609C27.3924 4.19609 27.4106 4.19609 27.3924 4.25058C27.3561 4.41407 27.3379 4.57756 27.3379 4.72288C27.3379 5.14068 27.3924 5.57665 27.4832 5.99445C27.4832 6.01262 27.5741 6.41225 27.5922 6.44858C27.6467 6.66657 27.7012 6.88455 27.7557 7.1207C27.8647 7.5385 27.9555 7.97447 28.01 8.39227C28.01 8.46493 28.01 8.51943 27.9555 8.57393C27.7376 8.81007 27.5196 9.02806 27.2834 9.24604C27.0291 9.48219 26.7385 9.68201 26.4841 9.91816C26.3388 10.0635 26.1753 10.1906 26.03 10.336C25.8665 10.5176 25.703 10.6993 25.5577 10.8809C25.3942 11.0989 25.2852 11.3169 25.1944 11.553C25.0673 11.9163 25.0854 12.2615 25.0854 12.2615C25.0854 12.2615 25.0854 12.534 25.1581 12.6611C25.2126 12.7519 25.3034 12.7883 25.4306 12.7338C25.4851 12.7156 25.5396 12.6793 25.5759 12.643C25.6485 12.5885 25.703 12.534 25.7757 12.4613C25.812 12.425 26.1753 12.1525 26.2117 12.1343C26.7021 11.7892 27.4469 11.4985 27.9555 11.553V11.8255C27.8465 12.3705 27.7557 12.8064 27.6649 13.2061C27.4469 14.078 27.1744 14.9499 26.8293 15.7856C26.7566 15.9672 26.6658 16.167 26.575 16.3487C26.4297 16.6393 26.1572 16.8028 25.8302 16.93C25.6122 17.0208 25.3761 17.0753 25.1581 17.1479C25.1218 17.1479 25.0854 17.1843 25.0491 17.2024C25.0491 17.2024 25.0309 17.2388 25.0491 17.2569C25.0673 17.2933 25.0854 17.2569 25.1218 17.2569C25.1762 17.2569 25.2307 17.2569 25.2852 17.2569C25.5577 17.2569 25.812 17.2933 26.0663 17.3114C26.7566 17.3841 27.4651 17.4386 28.1554 17.3114C28.7185 17.2206 29.2089 17.0208 29.6086 16.6938C30.0809 16.2942 30.4079 15.8037 30.6258 15.2769C30.6622 15.1679 30.7167 15.0589 30.753 14.9681C30.7893 14.8591 30.8075 14.7501 30.862 14.6411C30.8983 14.5503 30.8983 14.4413 30.9346 14.3323C31.0255 13.9145 31.0618 13.4967 31.0618 13.0789C31.0618 12.0617 30.8983 11.0626 30.6803 10.0453C30.5532 9.40953 30.3715 8.79191 30.2989 8.13796C30.2807 7.91997 30.2807 7.70199 30.2807 7.48401C30.2807 7.41135 30.1717 7.28419 30.2262 7.22969C30.3897 7.0662 30.6622 6.73923 30.862 6.79373C30.8983 6.79373 30.9165 6.75739 30.9528 6.75739C30.9528 6.68473 31.0073 6.63024 31.0436 6.59391C31.0073 6.53941 30.9891 6.48492 30.9528 6.43042C30.9165 6.33959 30.9165 6.24877 30.8438 6.1761C30.8438 6.1761 30.8438 6.13977 30.8438 6.12161C30.971 6.06711 31.1163 6.01262 31.2798 6.03078C31.3525 6.03078 31.3706 6.04895 31.3706 6.12161C31.3706 6.17611 31.3706 6.2306 31.3706 6.2851C31.3706 6.32143 31.3706 6.33959 31.3706 6.35776C31.3706 6.2306 31.4251 6.10344 31.5523 6.03078C31.5523 6.03078 31.5886 6.03078 31.5886 6.01262C31.5159 5.84913 31.4796 5.68564 31.4614 5.50399C31.4069 5.54032 31.4069 5.59481 31.3888 5.64931C31.3706 5.72197 31.298 5.77647 31.2071 5.77647C31.0618 5.77647 30.9346 5.74014 30.8075 5.72197C30.5895 5.68564 30.3715 5.64931 30.1535 5.64931C29.8992 5.64931 29.6449 5.63115 29.3906 5.61298C29.1363 5.61298 28.9001 5.54032 28.6821 5.44949C28.5005 5.37683 28.3915 5.24967 28.4097 5.06802C28.4097 4.8682 28.6277 4.77738 28.8275 4.8682C28.9183 4.90453 28.991 4.97719 29.0818 5.01353C29.2271 5.08619 29.4088 5.06802 29.5723 5.04986C29.8992 5.01352 30.1717 4.8682 30.4079 4.66838C30.5895 4.5049 30.7712 4.34141 30.8983 4.14159C30.9528 4.06893 30.971 3.99627 31.0436 3.92361C31.1163 3.85095 31.1526 3.85095 31.2616 3.88728C31.3161 3.90544 31.3706 3.94177 31.4433 3.92361C31.4251 3.81461 31.3706 3.72379 31.3161 3.63296C31.2798 3.59663 31.298 3.57847 31.3525 3.5603C31.5159 3.5058 31.6794 3.45131 31.8247 3.37865C31.9337 3.32415 32.0609 3.28782 32.1517 3.21516C32.2789 3.12433 32.2607 3.03351 32.1154 2.96085M30.6258 6.19427C30.5895 6.2306 30.5532 6.19427 30.535 6.19427C30.5168 6.19427 30.4805 6.19427 30.4805 6.2306C30.4805 6.24877 30.4987 6.24877 30.5168 6.26693C30.5532 6.26693 30.6258 6.26693 30.6258 6.30326C30.6258 6.35776 30.5532 6.30326 30.535 6.33959C30.4442 6.44858 30.2625 6.44858 30.1354 6.52125C30.099 6.53941 30.099 6.55758 30.1354 6.57574C30.1717 6.57574 30.2262 6.61207 30.2625 6.57574C30.317 6.55758 30.3715 6.57574 30.426 6.57574C30.535 6.59391 30.535 6.63024 30.535 6.72106C30.535 6.83006 30.4805 6.93905 30.4624 7.04804C30.4624 7.10254 30.4079 7.1752 30.3352 7.22969C30.2807 7.26602 30.2444 7.33868 30.1899 7.39318C30.1172 7.46584 30.099 7.57483 30.0082 7.62933C29.9719 7.64749 29.9356 7.66566 29.8811 7.66566C29.8447 7.66566 29.8084 7.62933 29.8084 7.593C29.8084 7.55667 29.7721 7.5385 29.7357 7.52034C29.6267 7.39318 29.4996 7.28419 29.4088 7.15703C29.3361 7.06621 29.2816 6.99354 29.2089 6.90272C29.1908 6.88455 29.1726 6.84822 29.1908 6.81189C29.2453 6.7029 29.2271 6.57574 29.2271 6.46675C29.2271 6.32143 29.2271 6.19427 29.2271 6.04895C29.2453 6.01262 29.1726 5.97629 29.2271 5.93996C29.2634 5.92179 29.3179 5.93996 29.3543 5.93996C29.2998 5.90363 29.2271 5.93996 29.1544 5.88546C29.6812 5.88546 30.1717 6.01262 30.644 6.1761M29.7357 4.54123C29.4088 4.68655 29.0818 4.61389 28.9546 4.28691C28.9365 4.23242 28.9546 4.19609 28.9546 4.14159C28.9546 3.88728 29.1 3.68746 29.3724 3.54214C29.4814 3.48764 29.6267 3.46947 29.7539 3.48764C29.8447 3.48764 29.9174 3.57847 29.9901 3.63296C30.2807 3.95994 30.1535 4.35957 29.7721 4.52306" fill="#1D1D1B"/>
<path d="M27.5016 6.0127C27.3926 6.13985 27.2836 6.64848 29.2092 6.8483C29.2092 6.8483 29.6088 6.52132 29.082 6.53949C28.5552 6.53949 27.4471 6.24884 27.5198 6.0127" fill="white"/>
<path d="M27.5016 6.0127C27.3926 6.13985 27.2836 6.64848 29.2092 6.8483C29.2092 6.8483 29.6088 6.52132 29.082 6.53949C28.5552 6.53949 27.4471 6.24884 27.5198 6.0127H27.5016Z" stroke="#1D1D1B" stroke-width="0.4" stroke-linecap="round" stroke-linejoin="round"/>
<path d="M27.3938 3.37883C28.2475 3.05185 30.5545 2.8702 30.5545 2.8702C30.5545 2.8702 29.2284 2.77937 27.3574 3.17901L27.4119 3.37883H27.3938Z" fill="white"/>
<path d="M28.0831 3.0334C27.8106 2.03431 27.4473 1.14421 26.9023 0.599251C26.9023 0.599251 27.4836 0.235945 28.3919 0.126953C28.3919 0.126953 28.4646 2.41578 28.7915 2.94258" fill="white"/>
<path d="M29.209 17.802C29.8084 17.8929 32.0246 18.1653 33.6595 16.8756C35.0219 15.8039 36.0936 13.6603 34.3134 10.8447C34.3134 10.8447 35.3489 12.4796 35.1127 14.0963C34.7857 16.367 32.8784 18.2925 29.209 17.802Z" fill="#1D1D1B"/>
<path d="M27.3209 17.4023C27.6297 17.8383 27.775 19.2189 27.775 19.2189C27.775 19.2189 27.775 19.673 27.9749 19.7275C27.7024 19.3097 27.993 18.1835 27.7205 17.7293C27.7205 17.7293 29.1738 17.8746 30.3363 18.2561C30.3363 18.2561 29.5916 17.9836 29.2101 17.7838C28.6833 17.7293 27.775 17.475 27.4117 17.4023C27.3572 17.4023 27.3027 17.4023 27.3027 17.4023" fill="#1D1D1B"/>
<path d="M29.7726 19.8004C28.7735 19.1283 29.0823 18.6015 28.4102 18.1655C28.4102 18.1655 28.828 18.6742 28.8825 18.9285C28.937 19.1646 29.2821 19.4916 29.2821 19.4916L29.7907 19.8004H29.7726Z" fill="#1D1D1B"/>
<path d="M30.5542 19.6365C30.4815 19.1824 29.9729 18.7282 29.6641 18.6011C29.6641 18.6011 30.0819 18.6556 30.5905 19.4003L30.5542 19.6365Z" fill="#1D1D1B"/>
<path d="M31.6074 17.7475C32.2795 17.802 33.7691 17.911 34.8408 18.238C34.8408 18.238 34.2596 17.9292 32.0434 17.7112C32.0434 17.7112 32.4794 17.6567 33.0425 17.4024C33.4966 17.2026 34.0234 16.8029 34.5139 16.7666L33.6419 16.8756C33.6419 16.8756 32.988 17.5114 31.6074 17.7475Z" fill="#1D1D1B"/>
<path d="M36.1679 17.8385C35.732 17.8022 35.0962 17.5479 33.752 17.5479C33.752 17.5479 35.2233 17.7113 35.3505 17.8748C35.3505 17.8748 35.3868 17.7477 36.1679 17.8385Z" fill="#1D1D1B"/>
<path d="M35.9493 17.3659C35.695 17.2932 35.2227 17.2569 34.8594 17.3114C34.8594 17.3114 35.4225 17.2205 35.8221 17.3114L35.9311 17.3659H35.9493Z" fill="#1D1D1B"/>
<path d="M27.9023 11.5714C28.302 11.6077 28.9741 11.8984 28.9741 11.8984C28.9741 11.8984 28.0658 11.6259 27.9023 11.6804V11.5532V11.5714Z" fill="white"/>
<path d="M30.7003 12.4067C30.9183 11.8073 31.3724 11.2805 32.0263 11.1533C32.0263 11.1533 30.7548 8.31953 29.8647 6.93896C29.8647 6.93896 30.1372 7.12062 29.8283 7.70191C29.5195 8.2832 29.5195 11.6074 29.5195 11.6074L30.6821 12.4067H30.7003Z" fill="#1D1D1B"/>
<path d="M33.4595 10.8809C33.4595 10.8809 34.1862 10.8264 34.5858 11.2806C34.5858 11.2806 33.3142 8.73742 32.1153 7.30236C31.9337 7.08438 31.9518 6.72107 31.7702 6.57575C31.6067 6.50309 31.0254 6.68474 31.0254 6.68474C31.0254 6.68474 32.6784 8.5376 33.4595 10.8809Z" fill="#1D1D1B"/>
<path d="M28.6652 6.10365C28.6652 6.10365 28.3383 7.48422 29.6462 7.88385C29.6462 7.88385 30.4454 7.21174 30.5363 6.90293C30.5363 6.90293 30.8632 7.17541 31.3719 6.79393C31.3719 6.79393 32.0621 7.33889 32.3165 7.1754C32.5708 7.01192 32.4981 6.48512 32.3528 6.04916C32.2438 5.70401 32.0803 5.54053 31.9895 5.54053C31.7897 5.57686 31.5172 6.04916 31.2992 6.23081C31.1357 6.04916 30.5181 6.10365 30.4091 6.3943C30.4091 6.3943 29.192 6.06732 28.6652 6.10365Z" fill="#1D1D1B"/>
<path d="M28.6652 6.10365C28.6652 6.10365 28.3383 7.48422 29.6462 7.88385C29.6462 7.88385 30.4454 7.21174 30.5363 6.90293C30.5363 6.90293 30.8632 7.17541 31.3719 6.79393C31.3719 6.79393 32.0621 7.33889 32.3165 7.1754C32.5708 7.01192 32.4981 6.48512 32.3528 6.04916C32.2438 5.70401 32.0803 5.54053 31.9895 5.54053C31.7897 5.57686 31.5172 6.04916 31.2992 6.23081C31.1357 6.04916 30.5181 6.10365 30.4091 6.3943C30.4091 6.3943 29.192 6.06732 28.6652 6.10365V6.10365Z" stroke="white" stroke-width="0.4" stroke-miterlimit="10"/>
<path d="M28.6104 6.68506C28.6104 6.68506 28.6104 6.88488 28.6649 6.9757H28.5559L28.5195 6.68506H28.6104Z" fill="#1D1D1B"/>
<path d="M30.4635 6.39404C30.4271 6.5212 30.4635 6.73918 30.5725 6.88451C30.5725 6.88451 30.4271 6.83001 30.409 6.64836C30.3726 6.4667 30.4635 6.39404 30.4635 6.39404Z" fill="#F5A800"/>
<path d="M31.2617 6.23047C31.3344 6.35763 31.3889 6.52111 31.3344 6.79359C31.3344 6.79359 31.4797 6.46662 31.2617 6.23047Z" fill="#F5A800"/>
<path d="M30.3733 6.55762C30.3733 6.55762 29.9918 6.4668 29.7012 6.4668C29.4105 6.4668 30.3733 6.55762 30.3733 6.55762Z" fill="#F5A800"/>
<path d="M29.6816 6.70287C29.6816 6.70287 30.0631 6.70287 30.3538 6.63021C30.6444 6.55755 29.6816 6.70287 29.6816 6.70287Z" fill="#F5A800"/>
<path d="M29.5371 7.08424C29.5371 7.08424 30.0276 6.99341 30.3545 6.82992C30.6815 6.64827 29.5371 7.08424 29.5371 7.08424Z" fill="#F5A800"/>
<path d="M31.3542 6.39436C31.3542 6.39436 31.6993 6.23087 31.772 6.06738C31.772 6.06738 31.6448 6.30353 31.3723 6.44885C31.336 6.46702 31.3542 6.37619 31.3542 6.37619" fill="#F5A800"/>
</g>
<defs>
<clipPath id="clip0_857_20084">
<rect width="99.1281" height="20" fill="white"/>
</clipPath>
</defs>
</svg>
